<svg xmlns="http://www.w3.org/2000/svg" width="120" height="120" viewBox="0 0 120 120">
  <g id="mountains" transform="translate(-8.421 -34.543)">
    <path id="Path_60" data-name="Path 60" d="M128,147.266l.034-.028L84.3,39.3l-.018.015c-.963-2.815-2.973-4.774-5.319-4.774s-4.448,1.959-5.4,4.994l-29.1,71.83L37.335,93.78l-.009.007a3.247,3.247,0,0,0-2.806-2.519c-1.268,0-2.356,1.083-2.847,2.628L10.9,145.17h-.093v.229L8.8,150.363a3.316,3.316,0,0,0-.375,1.56c0,1.432.814,2.592,1.818,2.592a1.31,1.31,0,0,0,.568-.142v.171h114.44v-.094c1.789-.2,3.171-2.319,3.174-4.875a6.535,6.535,0,0,0-.42-2.307Z" transform="translate(0 0)" fill="#c3c3c3"/>
  </g>
</svg>
