<svg xmlns="http://www.w3.org/2000/svg" width="192" height="192" viewBox="0 0 192 192"><path d="M96,132a36,36,0,1,1,36-36A36,36,0,0,1,96,132Zm0,12A48,48,0,1,0,48,96,48,48,0,0,0,96,144ZM96,0a6,6,0,0,1,6,6V30a6,6,0,0,1-12,0V6A6,6,0,0,1,96,0Zm0,156a6,6,0,0,1,6,6v24a6,6,0,0,1-12,0V162A6,6,0,0,1,96,156Zm96-60a6,6,0,0,1-6,6H162a6,6,0,0,1,0-12h24A6,6,0,0,1,192,96ZM36,96a6,6,0,0,1-6,6H6A6,6,0,0,1,6,90H30A6,6,0,0,1,36,96ZM163.884,28.116a6,6,0,0,1,0,8.484L146.916,53.58a6,6,0,0,1-8.484-8.5L155.4,28.116A6,6,0,0,1,163.884,28.116ZM53.568,138.432a6,6,0,0,1,0,8.484L36.6,163.884a6,6,0,1,1-8.485-8.485l16.969-16.967A6,6,0,0,1,53.568,138.432Zm110.316,25.452a6,6,0,0,1-8.484,0l-16.968-16.968a6,6,0,1,1,8.485-8.485L163.884,155.4A6,6,0,0,1,163.884,163.884ZM53.568,53.58a6,6,0,0,1-8.484,0L28.116,36.6A6,6,0,1,1,36.6,28.115L53.568,45.084a6,6,0,0,1,0,8.5Z" fill="#c3c3c3"/></svg>