<svg xmlns="http://www.w3.org/2000/svg" width="192" height="192" viewBox="0 0 192 192"><g transform="translate(-0.006 -0.006)"><g transform="translate(0.006 0.006)"><path d="M96,57.048A38.952,38.952,0,1,0,134.952,96,38.952,38.952,0,0,0,96,57.048ZM69.048,96A26.952,26.952,0,1,1,96,122.952,26.952,26.952,0,0,1,69.048,96Z" transform="translate(0 0)" fill="#c3c3c3"/><path d="M117.559,16.117c-6.324-21.481-36.782-21.481-43.107,0l-1.128,3.828a10.477,10.477,0,0,1-15.061,6.24l-3.5-1.92c-19.681-10.7-41.2,10.825-30.482,30.494l1.908,3.5a10.477,10.477,0,0,1-6.24,15.061l-3.828,1.128c-21.481,6.324-21.481,36.782,0,43.107l3.828,1.128a10.477,10.477,0,0,1,6.24,15.061l-1.92,3.5c-10.7,19.681,10.813,41.211,30.494,30.482l3.5-1.908a10.477,10.477,0,0,1,15.061,6.24l1.128,3.828c6.324,21.481,36.782,21.481,43.107,0l1.128-3.828a10.477,10.477,0,0,1,15.061-6.24l3.5,1.92c19.681,10.717,41.211-10.825,30.482-30.494l-1.908-3.5a10.477,10.477,0,0,1,6.24-15.061l3.828-1.128c21.481-6.324,21.481-36.782,0-43.107l-3.828-1.128a10.477,10.477,0,0,1-6.24-15.061l1.92-3.5c10.717-19.681-10.825-41.2-30.494-30.482l-3.5,1.908a10.477,10.477,0,0,1-15.061-6.24l-1.128-3.828Zm-31.6,3.4c2.952-10.021,17.137-10.021,20.089,0l1.128,3.828A22.477,22.477,0,0,0,139.5,36.722l3.492-1.92c9.169-4.98,19.2,5.04,14.209,14.221l-1.908,3.5a22.477,22.477,0,0,0,13.393,32.306l3.816,1.128c10.021,2.952,10.021,17.137,0,20.089l-3.828,1.128A22.477,22.477,0,0,0,155.29,139.5l1.92,3.492c4.98,9.169-5.04,19.2-14.221,14.209L139.5,155.29a22.477,22.477,0,0,0-32.318,13.393l-1.128,3.816c-2.952,10.021-17.137,10.021-20.089,0l-1.128-3.828A22.477,22.477,0,0,0,52.527,155.29l-3.5,1.92c-9.169,4.98-19.2-5.04-14.209-14.221l1.908-3.492a22.477,22.477,0,0,0-13.381-32.33l-3.828-1.128c-10.021-2.952-10.021-17.137,0-20.089l3.828-1.128A22.477,22.477,0,0,0,36.722,52.527l-1.92-3.5c-4.98-9.169,5.04-19.2,14.221-14.209l3.5,1.908A22.477,22.477,0,0,0,84.833,23.341l1.128-3.828Z" transform="translate(-0.006 -0.006)" fill="#c3c3c3"/></g></g></svg>