<svg xmlns="http://www.w3.org/2000/svg" width="270" height="270" viewBox="0 0 270 270"><g transform="translate(-1425 -423)"><circle cx="135" cy="135" r="135" transform="translate(1425 423)" fill="#da0000"/><circle cx="135" cy="135" r="135" transform="translate(1425 423)" fill="#da0000"/><path d="M16.02-83.3a43.563,43.563,0,0,0,7.654.712c13.528,0,22.962-7.832,22.962-18.868,0-12.816-12.994-17.622-28.48-17.622-21.894,0-46.992,9.434-46.992,33.642,0,19.58,16.732,27.234,27.768,33.286,12.816,6.942,17.8,12.1,17.8,22.072C16.732-15.664,6.408-7.12-11.036-7.12c-13.528,0-20.47-4.984-20.47-18.334,0-10.5,4.45-15.13,8.722-15.13,6.23,0,5.162,9.612,12.816,9.612,3.56,0,7.654-1.958,7.654-7.12,0-6.586-6.764-9.434-15.664-9.434-15.308,0-30.082,8.188-30.082,24.92,0,17.444,16.376,24.742,36.312,24.742,25.988,0,53.756-12.282,53.756-40.584,0-21.36-15.664-26.878-29.548-34.532C1.068-79.21-3.56-84.194-3.56-92.56c0-9.968,6.408-18.69,20.292-18.69,9.078,0,14.774,3.738,14.774,11.036,0,7.832-6.408,10.146-15.486,10.5Z" transform="translate(1555.712 615.082)" fill="#fff"/><path d="M16.02-83.3a43.563,43.563,0,0,0,7.654.712c13.528,0,22.962-7.832,22.962-18.868,0-12.816-12.994-17.622-28.48-17.622-21.894,0-46.992,9.434-46.992,33.642,0,19.58,16.732,27.234,27.768,33.286,12.816,6.942,17.8,12.1,17.8,22.072C16.732-15.664,6.408-7.12-11.036-7.12c-13.528,0-20.47-4.984-20.47-18.334,0-10.5,4.45-15.13,8.722-15.13,6.23,0,5.162,9.612,12.816,9.612,3.56,0,7.654-1.958,7.654-7.12,0-6.586-6.764-9.434-15.664-9.434-15.308,0-30.082,8.188-30.082,24.92,0,17.444,16.376,24.742,36.312,24.742,25.988,0,53.756-12.282,53.756-40.584,0-21.36-15.664-26.878-29.548-34.532C1.068-79.21-3.56-84.194-3.56-92.56c0-9.968,6.408-18.69,20.292-18.69,9.078,0,14.774,3.738,14.774,11.036,0,7.832-6.408,10.146-15.486,10.5Z" transform="translate(1555.712 615.082)" fill="#fff"/></g></svg>