<svg xmlns="http://www.w3.org/2000/svg" width="32.001" height="49.779" viewBox="0 0 32.001 49.779"><g transform="translate(-42 -12)"><path d="M70.445,84v5.333a12.445,12.445,0,0,1-24.889,0V84H42v5.333a16,16,0,0,0,14.223,15.894v3.662H49.111v3.556H66.889v-3.556H59.778v-3.662A16,16,0,0,0,74,89.333V84Z" transform="translate(0 -50.666)" fill="#c3c3c3"/><path d="M74.889,47.556a8.889,8.889,0,0,0,8.889-8.889V20.889a8.889,8.889,0,1,0-17.778,0V38.667A8.889,8.889,0,0,0,74.889,47.556ZM69.556,20.889a5.333,5.333,0,0,1,10.667,0V38.667a5.333,5.333,0,1,1-10.667,0Z" transform="translate(-16.889 0)" fill="#c3c3c3"/></g></svg>